<?xml version="1.0" encoding="UTF-8"?>
<svg id="Layer_1" xmlns="http://www.w3.org/2000/svg" xmlns:xlink="http://www.w3.org/1999/xlink" version="1.1" viewBox="0 0 1000 1000">
  <!-- Generator: Adobe Illustrator 30.2.1, SVG Export Plug-In . SVG Version: 2.1.1 Build 1)  -->
  <defs>
    <style>
      .st0 {
        fill: url(#radial-gradient);
      }

      .st1 {
        fill: #E0E7FF;
      }

      .st2 {
        fill: #C7D2FE;
      }
    </style>
    <radialGradient id="radial-gradient" cx="535.05" cy="599.84" fx="535.05" fy="599.84" r="136.44" gradientTransform="translate(-110.68 1433.99) scale(1.41 -1.41)" gradientUnits="userSpaceOnUse">
      <stop offset="0" stop-color="#272660"/>
      <stop offset=".2" stop-color="#225978"/>
      <stop offset=".3" stop-color="#236c76"/>
      <stop offset=".49" stop-color="#258b75"/>
      <stop offset=".67" stop-color="#27a173"/>
      <stop offset=".84" stop-color="#28ae73"/>
      <stop offset="1" stop-color="#29b373"/>
    </radialGradient>
  </defs>
  <g id="Layer_1-2">
    <g>
      <path class="st0" d="M717.21,583.87v-70.87h-13.47v70.87h13.47ZM727.72,434.05v-13.11c-7.21.23-14.28,2.3-20.59,6.2l-16.16,10.03v-21.07h-13.11v21.05l-16.16-10.03c-6.31-3.9-13.36-5.97-20.59-6.2v13.11c4.8.23,9.48,1.63,13.68,4.22l19.92,12.35-19.92,12.35c-4.2,2.59-8.88,3.99-13.68,4.22v13.11c7.21-.23,14.28-2.3,20.59-6.2l16.16-10.03v14.46c0,6.82-2.46,13.5-7.25,18.34l-.11.11-17.12,17.12c-7.9,7.9-12.26,18.41-12.26,29.58v40.16h13.13v-26.03h23.62v26.03h13.11v-119.74l16.16,10.03c6.29,3.9,13.36,5.97,20.59,6.2v-13.11c-4.8-.23-9.48-1.63-13.68-4.22l-19.92-12.35,19.92-12.35c4.2-2.59,8.88-4.02,13.68-4.22v-.02ZM677.85,544.74h-23.62v-1.01c0-7.67,2.98-14.87,8.4-20.31l15.22-15.22v36.54h0ZM701.05,497.44l9.16,9.16,9.16-9.16-9.16-9.16-9.16,9.16Z"/>
      <g>
        <rect class="st2" x="600.98" y="463.45" width="6.89" height="40.46"/>
        <rect class="st2" x="467.12" y="464.87" width="6.89" height="6.89" transform="translate(-193.32 469.9) rotate(-45)"/>
        <path class="st2" d="M560.5,551.28v-26.71h-15.61c-5.85,0-11.38,2.27-15.51,6.43l-9,9c-.18.18-.39.37-.6.55v-15.95h-6.89v19.49c-1.03.23-2.09.34-3.17.34h-10.58v-19.83h-17.47c-5.85,0-11.38,2.27-15.51,6.43l-7.73,7.73v-27.93h-6.89v32.73c-1.61.57-3.28.87-5.03.87h-8.72v-19.83h-6.89v19.83h-13.77v-33.6h-6.89v40.46h36.24c5.85,0,11.38-2.27,15.51-6.43l.37-.37v6.79h47.32c5.85,0,11.38-2.27,15.51-6.43l.34-.34v6.77h34.93ZM471.04,535.86c2.85-2.85,6.63-4.41,10.65-4.41h10.58v12.94h-29.77l8.54-8.54ZM534.24,535.86c2.85-2.85,6.63-4.41,10.65-4.41h8.72v12.94h-27.91s8.54-8.54,8.54-8.54Z"/>
        <rect class="st2" x="600.98" y="510.82" width="6.89" height="40.46"/>
        <rect class="st2" x="430.92" y="512.25" width="6.89" height="6.89" transform="translate(-237.43 458.18) rotate(-45)"/>
        <rect class="st2" x="327.26" y="542.98" width="6.89" height="6.89" transform="translate(-289.52 393.89) rotate(-45)"/>
        <rect class="st2" x="337.01" y="542.99" width="6.89" height="6.89" transform="translate(-286.67 400.78) rotate(-45)"/>
        <path class="st2" d="M341.2,535.86l9,9c4.15,4.15,9.66,6.43,15.51,6.43h37.69v-6.89h-36.65l8.54-8.54c2.85-2.85,6.63-4.41,10.65-4.41h17.47v-6.89h-17.47c-5.85,0-11.38,2.27-15.51,6.43l-9,9c-.96.96-2.02,1.77-3.17,2.43-1.15-.67-2.23-1.47-3.19-2.43l-9-9c-4.15-4.15-9.66-6.43-15.51-6.43h-15.61v19.83h-32.11l1.68-1.68c2.82-2.82,6.66-4.41,10.65-4.41h12.9v-6.89h-12.9c-5.83,0-11.41,2.32-15.51,6.43l-7.34,7.34v6.08h3.65l.23-.23v.23h45.63v-19.83h8.72c4.02,0,7.8,1.56,10.65,4.41h.02Z"/>
        <path class="st2" d="M594.05,551.28c-.32-5.35-2.55-10.35-6.38-14.18l-2.07-2.07,2.07-2.07c4.15-4.15,6.43-9.66,6.43-15.51v-6.66h-6.89v6.66c0,4.02-1.56,7.8-4.41,10.65l-2.07,2.07-2.07-2.07c-2.85-2.85-4.41-6.63-4.41-10.65v-6.66h-6.89v6.66c0,5.85,2.27,11.38,6.43,15.51l2.07,2.07-2.07,2.07c-3.83,3.83-6.06,8.81-6.38,14.18h26.62,0ZM576.75,544.4c.57-.87,1.19-1.68,1.93-2.43l2.07-2.07,2.07,2.07c.73.73,1.38,1.56,1.93,2.43h-7.99,0Z"/>
        <path class="st2" d="M325.5,450.14l.39-.39v6.82h34.86v-26.69h-15.61c-5.85,0-11.38,2.27-15.51,6.43l-9,9c-2.85,2.85-6.63,4.41-10.65,4.41h-37.69v6.89h37.69c5.85,0,11.38-2.27,15.51-6.43v-.02ZM334.5,441.17c2.85-2.85,6.63-4.41,10.65-4.41h8.72v12.94h-27.91s8.54-8.54,8.54-8.54Z"/>
        <path class="st2" d="M590.4,436.74h17.47v-6.89h-17.47c-5.85,0-11.38,2.27-15.51,6.43l-9,9c-.44.44-.87.8-1.33,1.17-.14.11-.28.21-.44.32-.34.25-.71.5-1.08.71-.16.09-.3.18-.46.28-.48.28-.96.5-1.47.73-.05,0-.07.05-.11.05-.53.23-1.1.41-1.65.57-1.33.37-2.71.57-4.13.57h-180.69v-33.58h-6.89v40.46h240.23v-6.89h-36.65l8.54-8.54c2.85-2.85,6.63-4.41,10.65-4.41h0Z"/>
        <path class="st2" d="M465.71,503.94h128.41v-40.46h-6.89v33.6h-68.9c-1.42,0-2.8-.21-4.13-.57-.55-.16-1.12-.34-1.65-.57-.05,0-.07-.05-.11-.05-.5-.21-.99-.46-1.47-.73-.16-.09-.3-.18-.46-.28-.37-.23-.73-.46-1.08-.71-.14-.11-.28-.21-.44-.32-.46-.37-.92-.76-1.33-1.17l-9-9c-4.15-4.15-9.66-6.43-15.51-6.43h-17.47v6.89h17.47c4.02,0,7.8,1.56,10.65,4.41l8.54,8.54h-36.65v6.89l.02-.02Z"/>
        <path class="st2" d="M316.44,497.05h-19.76l8.54-8.54c2.85-2.85,6.63-4.41,10.65-4.41h.57v-6.89h-.57c-5.85,0-11.38,2.27-15.51,6.43l-9,9c-1.88,1.88-4.89,4.41-7.55,4.41h-11.52v6.89h44.13v-6.89h.02Z"/>
        <path class="st2" d="M446.59,495.38l1.68,1.68h-118.06v-33.6h-6.89v40.46h135.46v-6.08l-7.34-7.34c-4.11-4.11-9.71-6.43-15.51-6.43h-65.13l2.46-2.46c2.85-2.85,6.63-4.41,10.65-4.41h67.64v-6.89h-67.64c-5.85,0-11.38,2.27-15.51,6.43l-7.32,7.32h0v6.89h74.87c3.99,0,7.83,1.58,10.65,4.41l.02.02Z"/>
        <g>
          <path class="st1" d="M280.82,574.12h-3.08v9.57h-2.36v-9.57h-3.08v-2.02h8.51v2.02Z"/>
          <path class="st1" d="M289.36,583.69v-4.89h-4.59v4.89h-2.36v-11.59h2.36v4.68h4.59v-4.68h2.36v11.59h-2.36Z"/>
          <path class="st1" d="M301.34,581.67v2.02h-7.21v-11.59h7.21v2.02h-4.84v2.69h4.13v2.02h-4.13v2.85h4.84Z"/>
          <path class="st1" d="M310.91,583.69h-2.36v-4.64c-1.88-2.71-3.17-5.03-3.83-6.95h2.43c.62,1.65,1.49,3.33,2.59,5.03,1.08-1.63,1.93-3.3,2.57-5.03h2.43c-.73,2-2.02,4.31-3.83,6.95v4.64Z"/>
          <path class="st1" d="M323.23,581.67v2.02h-7.21v-11.59h7.21v2.02h-4.84v2.69h4.13v2.02h-4.13v2.85h4.84Z"/>
          <path class="st1" d="M332.32,583.69l-.69-2.55h-4.27c-.23.78-.46,1.63-.69,2.55h-2.43c1.33-4.84,2.66-8.7,4.02-11.59h2.46c1.4,2.96,2.75,6.84,4.04,11.59h-2.43ZM329.47,574.63c-.39.85-.92,2.36-1.56,4.5h3.1c-.67-2.23-1.17-3.72-1.54-4.5Z"/>
          <path class="st1" d="M339.27,579.38h-.71v4.29h-2.39v-11.59h3.42c1.42,0,2.55.3,3.35.9s1.22,1.45,1.22,2.55c0,1.68-.76,2.71-2.3,3.1.5.21.96.71,1.38,1.54l1.7,3.51h-2.55l-1.58-3.28c-.18-.37-.39-.62-.62-.78s-.53-.23-.9-.23h-.02ZM339.48,574.12h-.92v3.28h.92c1.49,0,2.25-.55,2.25-1.65,0-.6-.18-1.01-.57-1.26-.37-.25-.94-.37-1.7-.37h.02Z"/>
          <path class="st1" d="M358.99,573.55c.92,1.1,1.4,2.55,1.4,4.34s-.46,3.24-1.4,4.34c-.92,1.1-2.2,1.65-3.83,1.65s-2.91-.55-3.86-1.65-1.4-2.55-1.4-4.34.46-3.24,1.4-4.34c.92-1.1,2.2-1.65,3.86-1.65s2.91.55,3.83,1.65ZM353.04,575.04c-.48.69-.71,1.65-.71,2.87s.23,2.16.71,2.87c.48.69,1.17,1.03,2.09,1.03s1.58-.34,2.07-1.03c.48-.69.71-1.65.71-2.87s-.23-2.16-.71-2.87c-.48-.69-1.17-1.03-2.07-1.03s-1.61.34-2.09,1.03Z"/>
          <path class="st1" d="M364.64,583.69h-2.36v-11.59h7.05v2.02h-4.68v3.14h3.95v2.02h-3.95v4.41Z"/>
          <path class="st1" d="M382.15,583.69l-.69-2.55h-4.27c-.23.78-.46,1.63-.69,2.55h-2.43c1.33-4.84,2.66-8.7,4.02-11.59h2.46c1.4,2.96,2.75,6.84,4.04,11.59h-2.43ZM379.32,574.63c-.39.85-.92,2.36-1.56,4.5h3.1c-.67-2.23-1.17-3.72-1.54-4.5Z"/>
          <path class="st1" d="M389.12,579.38h-.71v4.29h-2.39v-11.59h3.42c1.42,0,2.55.3,3.35.9s1.22,1.45,1.22,2.55c0,1.68-.76,2.71-2.3,3.1.5.21.96.71,1.38,1.54l1.7,3.51h-2.55l-1.58-3.28c-.18-.37-.39-.62-.62-.78-.23-.16-.53-.23-.9-.23h-.02ZM389.31,574.12h-.92v3.28h.92c1.49,0,2.25-.55,2.25-1.65,0-.6-.18-1.01-.57-1.26-.37-.25-.94-.37-1.7-.37h.02Z"/>
          <path class="st1" d="M403.06,574.12h-3.08v9.57h-2.36v-9.57h-3.08v-2.02h8.51v2.02Z"/>
          <path class="st1" d="M404.62,583.69v-11.59h2.36v11.59h-2.36Z"/>
          <path class="st1" d="M411.73,583.69h-2.36v-11.59h7.05v2.02h-4.68v3.14h3.95v2.02h-3.95v4.41Z"/>
          <path class="st1" d="M418.25,583.69v-11.59h2.36v11.59h-2.36Z"/>
          <path class="st1" d="M427.96,583.87c-1.72,0-3.08-.53-4.02-1.61-.94-1.06-1.42-2.5-1.42-4.31s.48-3.3,1.42-4.43c.96-1.1,2.32-1.65,4.11-1.65.94,0,1.86.21,2.8.6l-.53,2c-.99-.34-1.72-.5-2.25-.5-2.07,0-3.12,1.33-3.12,3.97s1.03,3.83,3.1,3.83c.78,0,1.58-.21,2.43-.64l.46,2.04c-.87.46-1.86.69-3.01.69l.02.02Z"/>
          <path class="st1" d="M432.68,583.69v-11.59h2.36v11.59h-2.36Z"/>
          <path class="st1" d="M444.57,583.69l-.69-2.55h-4.27c-.23.78-.46,1.63-.69,2.55h-2.43c1.33-4.84,2.66-8.7,4.02-11.59h2.46c1.4,2.96,2.75,6.84,4.04,11.59h-2.43ZM441.75,574.63c-.39.85-.92,2.36-1.56,4.5h3.1c-.67-2.23-1.17-3.72-1.54-4.5Z"/>
          <path class="st1" d="M448.45,583.69v-11.59h2.36v9.57h4.68v2.02s-7.05,0-7.05,0Z"/>
          <path class="st1" d="M461.12,583.69v-11.59h2.36v11.59h-2.36Z"/>
          <path class="st1" d="M468.05,583.69h-2.18v-11.59h2.3c1.42,2.73,3.1,5.49,5.05,8.29-.05-.39-.07-.87-.07-1.45v-6.84h2.18v11.59h-2.3c-1.1-1.47-2.02-2.78-2.78-3.88-.76-1.12-1.49-2.36-2.25-3.72.05.57.07,1.24.07,1.97v5.65l-.02-.02Z"/>
          <path class="st1" d="M485.38,574.12h-3.08v9.57h-2.36v-9.57h-3.08v-2.02h8.51s0,2.02,0,2.02Z"/>
          <path class="st1" d="M494.17,581.67v2.02h-7.21v-11.59h7.21v2.02h-4.84v2.69h4.13v2.02h-4.13v2.85h4.84Z"/>
          <path class="st1" d="M496.12,583.69v-11.59h2.36v9.57h4.68v2.02s-7.05,0-7.05,0Z"/>
          <path class="st1" d="M504.52,583.69v-11.59h2.36v9.57h4.68v2.02s-7.05,0-7.05,0Z"/>
          <path class="st1" d="M513.33,583.69v-11.59h2.36v11.59h-2.36Z"/>
          <path class="st1" d="M526.97,582.98c-1.17.6-2.41.92-3.65.92-1.79,0-3.19-.53-4.2-1.61-1.01-1.06-1.51-2.48-1.51-4.27s.53-3.3,1.56-4.43,2.46-1.7,4.25-1.7c1.17,0,2.23.21,3.14.6l-.53,2c-.8-.32-1.68-.5-2.57-.5-1.12,0-1.95.37-2.52,1.08s-.87,1.7-.87,2.96c0,1.19.3,2.11.87,2.78s1.4.99,2.5.99c.46,0,.94-.05,1.4-.16v-2.57h-1.9v-1.95h4.06v5.85l-.02.02Z"/>
          <path class="st1" d="M536.26,581.67v2.02h-7.21v-11.59h7.21v2.02h-4.84v2.69h4.13v2.02h-4.13v2.85h4.84Z"/>
          <path class="st1" d="M540.39,583.69h-2.18v-11.59h2.3c1.42,2.73,3.1,5.49,5.05,8.29-.05-.39-.07-.87-.07-1.45v-6.84h2.18v11.59h-2.3c-1.1-1.47-2.02-2.78-2.78-3.88-.76-1.12-1.49-2.36-2.25-3.72.05.57.07,1.24.07,1.97v5.65l-.02-.02Z"/>
          <path class="st1" d="M554.99,583.87c-1.72,0-3.08-.53-4.02-1.61-.94-1.06-1.42-2.5-1.42-4.31s.48-3.3,1.42-4.43c.96-1.1,2.32-1.65,4.11-1.65.94,0,1.86.21,2.8.6l-.53,2c-.99-.34-1.72-.5-2.25-.5-2.07,0-3.12,1.33-3.12,3.97s1.03,3.83,3.1,3.83c.78,0,1.58-.21,2.43-.64l.46,2.04c-.87.46-1.86.69-3.01.69l.02.02Z"/>
          <path class="st1" d="M566.93,581.67v2.02h-7.21v-11.59h7.21v2.02h-4.84v2.69h4.13v2.02h-4.13v2.85h4.84Z"/>
          <path class="st1" d="M579.62,583.69h-7.5v-1.93l1.74-1.65c1.03-.96,1.77-1.77,2.2-2.36s.64-1.22.64-1.86c0-1.01-.5-1.51-1.54-1.51-.67,0-1.4.28-2.16.83l-1.01-1.63c.96-.78,2.11-1.17,3.47-1.17,1.15,0,2.04.3,2.69.87s.94,1.38.94,2.41-.32,1.95-.99,2.89-1.58,1.9-2.73,2.94l-.25.23h4.54v1.97l-.05-.02Z"/>
          <path class="st1" d="M585.38,583.87c-.78,0-1.45-.16-2.02-.46s-1.03-.71-1.35-1.26c-.34-.53-.6-1.15-.76-1.81s-.25-1.4-.25-2.2.09-1.54.25-2.23c.16-.67.41-1.29.76-1.84s.8-.96,1.35-1.29c.57-.3,1.24-.46,2.02-.46,1.01,0,1.86.28,2.52.8.67.55,1.15,1.22,1.4,2.07.28.83.41,1.79.41,2.91,0,.83-.07,1.56-.23,2.23s-.41,1.26-.73,1.81-.78.94-1.35,1.24-1.24.44-2,.44l-.02.05ZM585.38,581.9c1.31,0,1.95-1.24,1.95-3.74s-.64-3.79-1.95-3.79-2,1.26-2,3.79.67,3.74,2,3.74Z"/>
          <path class="st1" d="M598.21,583.69h-7.5v-1.93l1.74-1.65c1.03-.96,1.77-1.77,2.2-2.36s.64-1.22.64-1.86c0-1.01-.5-1.51-1.54-1.51-.67,0-1.4.28-2.16.83l-1.01-1.63c.96-.78,2.11-1.17,3.47-1.17,1.15,0,2.04.3,2.69.87s.94,1.38.94,2.41-.32,1.95-.99,2.89-1.58,1.9-2.73,2.94l-.25.23h4.54v1.97l-.05-.02Z"/>
          <path class="st1" d="M607.87,579.95c0,1.22-.34,2.18-1.06,2.87-.71.71-1.65,1.06-2.89,1.06-1.35,0-2.41-.48-3.17-1.47-.78-.99-1.15-2.23-1.15-3.72,0-.85.09-1.65.3-2.41.21-.73.5-1.42.9-2,.39-.6.92-1.06,1.61-1.4.67-.34,1.42-.5,2.3-.5s1.51.09,2.09.28l-.44,1.86c-.53-.11-1.01-.18-1.45-.18-1.63,0-2.59.96-2.87,2.87.73-.46,1.56-.69,2.46-.69,1.06,0,1.88.32,2.48.94.6.64.92,1.47.92,2.48l-.02.02ZM603.95,581.9c.5,0,.9-.16,1.17-.48s.41-.76.41-1.29c0-1.08-.6-1.61-1.77-1.61-.55,0-1.15.16-1.84.5.05.9.23,1.61.57,2.11s.83.78,1.45.78v-.02Z"/>
        </g>
      </g>
    </g>
  </g>
</svg>