<svg xmlns="http://www.w3.org/2000/svg" width="500" height="500" viewBox="0 0 500 500" fill="none">
  <path d="M 261.0 413.5 L 235.0 413.5 L 205.0 405.5 L 180.0 390.5 L 163.5 374.0 L 153.5 360.0 L 146.5 346.0 L 141.5 330.0 L 138.5 309.0 L 139.5 256.0 L 144.5 245.0 L 158.0 233.5 L 169.0 230.5 L 208.0 230.5 L 211.5 228.0 L 213.5 183.0 L 218.5 172.0 L 227.0 163.5 L 235.0 159.5 L 244.0 157.5 L 282.0 157.5 L 285.5 154.0 L 286.5 110.0 L 291.5 99.0 L 300.0 90.5 L 307.0 86.5 L 315.0 84.5 L 359.0 84.5 L 360.5 87.0 L 359.5 132.0 L 352.5 146.0 L 343.0 154.5 L 331.0 158.5 L 291.0 158.5 L 286.5 164.0 L 285.5 206.0 L 280.5 217.0 L 269.0 227.5 L 258.0 231.5 L 219.0 231.5 L 216.0 232.5 L 213.5 236.0 L 214.5 314.0 L 219.5 324.0 L 232.0 335.5 L 243.0 339.5 L 256.0 339.5 L 270.0 333.5 L 279.5 324.0 L 284.5 314.0 L 285.5 260.0 L 287.5 252.0 L 292.5 243.0 L 302.0 234.5 L 312.0 230.5 L 354.0 229.5 L 359.5 231.0 L 358.5 321.0 L 353.5 341.0 L 345.5 358.0 L 327.5 381.0 L 309.0 396.5 L 290.0 406.5 L 278.0 410.5 L 261.0 413.5 Z" fill="#FFFFFF" fill-rule="evenodd"/>
</svg>